<svg width="600" height="600" viewBox="0 0 600 600" fill="none" xmlns="http://www.w3.org/2000/svg">
<path d="M112.85 272.206C112.85 272.206 195.93 268.879 213.884 132.312C229.827 11.0278 369.923 66.232 410.419 114.579C462.879 177.208 434.914 284.943 502.777 298.554C570.64 312.164 526.324 463.484 423.312 449C295.169 430.983 326.172 505.863 287.705 537.556C260.097 560.303 146.896 538.406 143.123 455.834C139.948 386.351 110.639 386.571 89.8641 378.693C59.9022 367.33 41.0229 285.037 112.85 272.206Z" fill="#DEE9FF"/>
<path d="M395.276 423.872L313.652 343.216L297.49 359.573L379.114 440.229L395.276 423.872Z" fill="#699CFF"/>
<path d="M426.457 445.544L362.953 382.794C362.6 382.444 362.03 382.448 361.68 382.801L337.645 407.126C337.295 407.479 337.299 408.049 337.652 408.398L401.156 471.149C401.51 471.498 402.08 471.495 402.429 471.141L426.465 446.817C426.814 446.463 426.811 445.893 426.457 445.544Z" fill="#253259"/>
<path d="M241.309 383.78C297.464 383.78 342.986 338.257 342.986 282.102C342.986 225.947 297.464 180.425 241.309 180.425C185.154 180.425 139.631 225.947 139.631 282.102C139.631 338.257 185.154 383.78 241.309 383.78Z" fill="#253259"/>
<path d="M241.309 367.19C288.301 367.19 326.395 329.095 326.395 282.103C326.395 235.111 288.301 197.016 241.309 197.016C194.316 197.016 156.222 235.111 156.222 282.103C156.222 329.095 194.316 367.19 241.309 367.19Z" fill="#D4E5FF"/>
<path d="M413.206 190.185C389.356 182.454 363.582 195.529 355.82 219.477C348.089 243.327 361.164 269.102 385.112 276.864C409.061 284.626 434.768 271.423 442.5 247.572C450.232 223.72 437.057 197.916 413.206 190.185ZM406.01 212.388C408.679 213.254 411.032 214.892 412.769 217.096C414.506 219.301 415.549 221.971 415.766 224.769C415.983 227.567 415.364 230.366 413.988 232.812C412.612 235.258 410.541 237.24 408.037 238.507C405.532 239.773 402.708 240.268 399.923 239.928C397.137 239.587 394.515 238.427 392.39 236.595C390.265 234.762 388.731 232.34 387.985 229.634C387.238 226.929 387.312 224.063 388.196 221.4C390.584 214.031 398.64 210 406.01 212.388ZM388.003 267.944C380.08 265.389 373.291 260.158 368.799 253.148C377.204 248.373 385.992 247.042 393.943 249.619C401.893 252.196 408.358 258.363 412.235 267.227C404.486 270.269 395.919 270.523 388.003 267.944Z" fill="#253259"/>
<path d="M214.695 407.52C210.553 409.635 207.13 412.93 204.86 416.99C202.591 421.05 201.576 425.691 201.944 430.328C202.312 434.964 204.047 439.388 206.929 443.038C209.811 446.689 213.711 449.402 218.136 450.836C222.56 452.27 227.311 452.36 231.786 451.095C236.262 449.829 240.262 447.264 243.28 443.725C246.298 440.186 248.199 435.832 248.742 431.213C249.285 426.593 248.447 421.917 246.332 417.774C243.491 412.224 238.565 408.027 232.634 406.105C226.703 404.182 220.251 404.692 214.695 407.52ZM220.173 418.251C221.463 417.592 222.92 417.331 224.358 417.502C225.797 417.672 227.152 418.266 228.253 419.208C229.353 420.15 230.149 421.398 230.54 422.793C230.93 424.188 230.897 425.668 230.446 427.044C229.994 428.42 229.144 429.632 228.003 430.524C226.861 431.417 225.481 431.95 224.036 432.057C222.592 432.163 221.148 431.839 219.888 431.124C218.628 430.408 217.609 429.335 216.96 428.04C216.1 426.314 215.954 424.318 216.556 422.485C217.157 420.653 218.457 419.131 220.173 418.25V418.251ZM233.877 445.101C230.053 447.06 225.666 447.629 221.468 446.71C222.792 441.899 225.515 438.206 229.358 436.244C233.201 434.283 237.811 434.174 242.461 435.994C240.743 439.933 237.708 443.152 233.877 445.099V445.101Z" fill="#253259"/>
</svg>
